<mxfile host="Electron" modified="2023-10-02T11:02:36.215Z" agent="Mozilla/5.0 (Windows NT 10.0; Win64; x64) AppleWebKit/537.36 (KHTML, like Gecko) draw.io/22.0.0 Chrome/114.0.5735.289 Electron/25.8.3 Safari/537.36" etag="AjGHhTDKx5IfYgmpS1JX" version="22.0.0" type="device">
  <diagram name="Page-1" id="G0gzP2OD3iGwMVVi1X8F">
    <mxGraphModel dx="2474" dy="1204" grid="1" gridSize="10" guides="1" tooltips="1" connect="1" arrows="1" fold="1" page="0" pageScale="1" pageWidth="827" pageHeight="1169" math="0" shadow="0">
      <root>
        <mxCell id="0" />
        <mxCell id="1" parent="0" />
        <mxCell id="nyelPQ7kJWinjYx-P1TW-1" value="" style="rounded=1;whiteSpace=wrap;html=1;arcSize=5;" vertex="1" parent="1">
          <mxGeometry x="80" y="200" width="470" height="810" as="geometry" />
        </mxCell>
        <mxCell id="nyelPQ7kJWinjYx-P1TW-2" value="Главная" style="rounded=0;whiteSpace=wrap;html=1;" vertex="1" parent="1">
          <mxGeometry x="110" y="230" width="170" height="60" as="geometry" />
        </mxCell>
        <mxCell id="nyelPQ7kJWinjYx-P1TW-3" value="Список форм" style="rounded=0;whiteSpace=wrap;html=1;" vertex="1" parent="1">
          <mxGeometry x="345" y="230" width="170" height="60" as="geometry" />
        </mxCell>
        <mxCell id="nyelPQ7kJWinjYx-P1TW-6" value="" style="rounded=1;whiteSpace=wrap;html=1;arcSize=5;" vertex="1" parent="1">
          <mxGeometry x="80" y="1050" width="470" height="810" as="geometry" />
        </mxCell>
        <mxCell id="nyelPQ7kJWinjYx-P1TW-7" value="Главная" style="rounded=0;whiteSpace=wrap;html=1;fillColor=#dae8fc;strokeColor=#6c8ebf;" vertex="1" parent="1">
          <mxGeometry x="110" y="1080" width="170" height="60" as="geometry" />
        </mxCell>
        <mxCell id="nyelPQ7kJWinjYx-P1TW-8" value="Список форм" style="rounded=0;whiteSpace=wrap;html=1;" vertex="1" parent="1">
          <mxGeometry x="345" y="1080" width="170" height="60" as="geometry" />
        </mxCell>
        <mxCell id="nyelPQ7kJWinjYx-P1TW-9" value="" style="rounded=0;whiteSpace=wrap;html=1;" vertex="1" parent="1">
          <mxGeometry x="110" y="1190" width="400" height="600" as="geometry" />
        </mxCell>
        <mxCell id="nyelPQ7kJWinjYx-P1TW-10" value="Форма" style="rounded=0;whiteSpace=wrap;html=1;" vertex="1" parent="1">
          <mxGeometry x="130" y="1200" width="350" height="60" as="geometry" />
        </mxCell>
        <mxCell id="nyelPQ7kJWinjYx-P1TW-11" value="Элемент 1" style="rounded=0;whiteSpace=wrap;html=1;" vertex="1" parent="1">
          <mxGeometry x="130" y="1290" width="350" height="60" as="geometry" />
        </mxCell>
        <mxCell id="nyelPQ7kJWinjYx-P1TW-12" value="Элемент 2" style="rounded=0;whiteSpace=wrap;html=1;" vertex="1" parent="1">
          <mxGeometry x="130" y="1390" width="350" height="60" as="geometry" />
        </mxCell>
        <mxCell id="nyelPQ7kJWinjYx-P1TW-13" value="" style="rounded=1;whiteSpace=wrap;html=1;arcSize=5;" vertex="1" parent="1">
          <mxGeometry x="600" y="1050" width="470" height="810" as="geometry" />
        </mxCell>
        <mxCell id="nyelPQ7kJWinjYx-P1TW-14" value="Главная" style="rounded=0;whiteSpace=wrap;html=1;" vertex="1" parent="1">
          <mxGeometry x="630" y="1080" width="170" height="60" as="geometry" />
        </mxCell>
        <mxCell id="nyelPQ7kJWinjYx-P1TW-15" value="Список форм" style="rounded=0;whiteSpace=wrap;html=1;fillColor=#dae8fc;strokeColor=#6c8ebf;" vertex="1" parent="1">
          <mxGeometry x="865" y="1080" width="170" height="60" as="geometry" />
        </mxCell>
        <mxCell id="nyelPQ7kJWinjYx-P1TW-20" value="Форма 1" style="rounded=0;whiteSpace=wrap;html=1;" vertex="1" parent="1">
          <mxGeometry x="630" y="1170" width="420" height="60" as="geometry" />
        </mxCell>
        <mxCell id="nyelPQ7kJWinjYx-P1TW-21" value="Форма 2" style="rounded=0;whiteSpace=wrap;html=1;" vertex="1" parent="1">
          <mxGeometry x="630" y="1260" width="420" height="60" as="geometry" />
        </mxCell>
        <mxCell id="nyelPQ7kJWinjYx-P1TW-22" value="Создать" style="rounded=0;whiteSpace=wrap;html=1;" vertex="1" parent="1">
          <mxGeometry x="780" y="1350" width="120" height="60" as="geometry" />
        </mxCell>
        <mxCell id="nyelPQ7kJWinjYx-P1TW-23" value="Редактировать" style="rounded=0;whiteSpace=wrap;html=1;" vertex="1" parent="1">
          <mxGeometry x="960" y="1210" width="90" height="20" as="geometry" />
        </mxCell>
        <mxCell id="nyelPQ7kJWinjYx-P1TW-24" value="Редактировать" style="rounded=0;whiteSpace=wrap;html=1;" vertex="1" parent="1">
          <mxGeometry x="960" y="1300" width="90" height="20" as="geometry" />
        </mxCell>
        <mxCell id="nyelPQ7kJWinjYx-P1TW-25" value="FormView" style="rounded=0;whiteSpace=wrap;html=1;" vertex="1" parent="1">
          <mxGeometry x="-50" y="1050" width="120" height="60" as="geometry" />
        </mxCell>
        <mxCell id="nyelPQ7kJWinjYx-P1TW-26" value="FormList" style="rounded=0;whiteSpace=wrap;html=1;" vertex="1" parent="1">
          <mxGeometry x="1080" y="1050" width="120" height="60" as="geometry" />
        </mxCell>
      </root>
    </mxGraphModel>
  </diagram>
</mxfile>
